<svg width="23" height="22" viewBox="0 0 23 22" fill="none" xmlns="http://www.w3.org/2000/svg">
<path d="M16 7C17.7902 7 19.5071 7.71116 20.773 8.97703C22.0389 10.2429 22.75 11.9598 22.75 13.75V21.625H18.25V13.75C18.25 13.1533 18.013 12.581 17.591 12.159C17.169 11.7371 16.5967 11.5 16 11.5C15.4033 11.5 14.831 11.7371 14.409 12.159C13.9871 12.581 13.75 13.1533 13.75 13.75V21.625H9.25001V13.75C9.25001 11.9598 9.96117 10.2429 11.227 8.97703C12.4929 7.71116 14.2098 7 16 7Z" fill="#101010"/>
<path d="M0.250004 8.125H4.75V21.625H0.250004V8.125Z" fill="#101010"/>
<path d="M2.5 4.75C3.74264 4.75 4.75 3.74264 4.75 2.5C4.75 1.25736 3.74264 0.25 2.5 0.25C1.25736 0.25 0.250004 1.25736 0.250004 2.5C0.250004 3.74264 1.25736 4.75 2.5 4.75Z" fill="#101010"/>
</svg>
