<svg width="25" height="21" viewBox="0 0 25 21" fill="none" xmlns="http://www.w3.org/2000/svg">
<path d="M24.875 0.37496C23.7977 1.13487 22.6049 1.71608 21.3425 2.09621C20.665 1.31716 19.7645 0.764989 18.7629 0.514377C17.7613 0.263766 16.7069 0.326805 15.7423 0.69497C14.7777 1.06314 13.9495 1.71866 13.3696 2.57289C12.7897 3.42712 12.4862 4.43884 12.5 5.47121V6.59621C10.523 6.64747 8.56393 6.209 6.79738 5.31984C5.03084 4.43067 3.51161 3.11843 2.375 1.49996C2.375 1.49996 -2.125 11.625 8 16.125C5.68309 17.6977 2.92305 18.4863 0.125 18.375C10.25 24 22.625 18.375 22.625 5.43746C22.624 5.1241 22.5938 4.8115 22.535 4.50371C23.6832 3.37139 24.4934 1.94176 24.875 0.37496Z" fill="#101010"/>
</svg>
